<svg xmlns="http://www.w3.org/2000/svg" xmlns:xlink="http://www.w3.org/1999/xlink" version="1.1" x="0px" y="0px" viewBox="0 0 64 80" style="enable-background:new 0 0 64 64;" xml:space="preserve"><g><path d="M61,61V2h-2v15h-1.184C57.928,16.686,58,16.352,58,16c0-1.654-1.346-3-3-3H18c-1.654,0-3,1.346-3,3   c0,0.352,0.072,0.686,0.184,1h-1.369C13.928,16.686,14,16.352,14,16c0-1.654-1.346-3-3-3H9c-1.654,0-3,1.346-3,3   c0,0.352,0.072,0.686,0.184,1H5V2H3v59H1v2h62v-2H61z M27,43.969l-5,1.25V55.5c0,0.275-0.225,0.5-0.5,0.5S21,55.775,21,55.5V44.618   l4-2V37h-2v4.382l-1,0.5v-4.579c0-1.107,0.55-2.135,1.471-2.748C24.015,34.191,24.648,34,25.303,34h3.395   c0.654,0,1.288,0.191,1.832,0.555C31.45,35.168,32,36.195,32,37.303v4.579l-1-0.5V37h-2v5.618l4,2V55.5c0,0.275-0.225,0.5-0.5,0.5   S32,55.775,32,55.5V45.219L27,43.969z M30,49h-6v-2.219l3-0.75l3,0.75V49z M19,49H5v-2h4h2h7h1V49z M53,19v2H42v-2H53z M53,23v2H42   v-2H53z M59,49h-4v-2h4V49z M59,45h-4V23h4V45z M40,45h-5v-1.618L34.236,43H40V45z M42,27h11v2H42V27z M42,31h11v2H42V31z M42,35   h11v2H42V35z M42,39h11v2H42V39z M42,43h11v2H42V43z M40,41h-6v-3.697c0-1.777-0.883-3.427-2.361-4.412   C30.766,32.308,29.748,32,28.697,32H27h-1.697c-1.051,0-2.068,0.308-2.941,0.891C20.883,33.876,20,35.525,20,37.303V41h-2   c-1.654,0-3,1.346-3,3c0,0.352,0.072,0.686,0.184,1h-1.369C13.928,44.686,14,44.352,14,44c0-1.654-1.346-3-3-3H9   c-1.654,0-3,1.346-3,3c0,0.352,0.072,0.686,0.184,1H5V23h35V41z M8,44c0-0.552,0.448-1,1-1h2c0.552,0,1,0.448,1,1s-0.448,1-1,1H9   C8.448,45,8,44.552,8,44z M19,43.382V45h-1c-0.552,0-1-0.448-1-1s0.448-1,1-1h1.764L19,43.382z M35,47h5v2h-5V47z M42,47h11v2H42   V47z M53,51v2H42v-2H53z M53,57H42v-2h11V57z M42,59h11v2H42V59z M55,51h4v10h-4V51z M59,21h-4v-2h4V21z M17,16   c0-0.551,0.448-1,1-1h37c0.552,0,1,0.449,1,1s-0.448,1-1,1H18C17.448,17,17,16.551,17,16z M8,16c0-0.551,0.448-1,1-1h2   c0.552,0,1,0.449,1,1s-0.448,1-1,1H9C8.448,17,8,16.551,8,16z M9,19h2h7h22v2H5v-2H9z M5,51h14v4.5c0,1.379,1.121,2.5,2.5,2.5   s2.5-1.121,2.5-2.5V51h6v4.5c0,1.379,1.121,2.5,2.5,2.5s2.5-1.121,2.5-2.5V51h5v10H5V51z"/><path d="M31,28c0-2.206-1.794-4-4-4s-4,1.794-4,4s1.794,4,4,4S31,30.206,31,28z M27,30c-1.103,0-2-0.897-2-2s0.897-2,2-2   s2,0.897,2,2S28.103,30,27,30z"/></g><text x="0" y="79" fill="#000000" font-size="5px" font-weight="bold" font-family="'Helvetica Neue', Helvetica, Arial-Unicode, Arial, Sans-serif">Created by Eucalyp</text><text x="0" y="84" fill="#000000" font-size="5px" font-weight="bold" font-family="'Helvetica Neue', Helvetica, Arial-Unicode, Arial, Sans-serif">from the Noun Project</text></svg>